<svg xmlns="http://www.w3.org/2000/svg" viewBox="0 0 145.41 25.62"><defs><style>.cls-1{fill:#efefef;}</style></defs><title>communication</title><g id="Слой_2" data-name="Слой 2"><g id="Слой_1-2" data-name="Слой 1"><path class="cls-1" d="M0,14.1A7.86,7.86,0,0,1,7.95,6.18,7.92,7.92,0,1,1,7.95,22,7.86,7.86,0,0,1,0,14.1Zm11.4,0a3.36,3.36,0,0,0-3.45-3.54A3.36,3.36,0,0,0,4.5,14.1a3.36,3.36,0,0,0,3.45,3.54A3.36,3.36,0,0,0,11.4,14.1Z"/><path class="cls-1" d="M20.7,13.86c0-4.83.93-7.38,5.73-9.75,3.21-1.59,4.53-2,5.4-4.11l3.72,2.13c-.6,2.52-2.46,3.63-5.64,4.83-2.67,1-3.45,1.86-3.87,2.91a6.11,6.11,0,0,1,4.11-1.41A6.38,6.38,0,0,1,36.36,15c0,4-2.94,7-7.65,7C23.73,22,20.7,18.48,20.7,13.86ZM31.86,15a3.06,3.06,0,0,0-3.27-3,3,3,0,0,0-3.18,2.91A3.09,3.09,0,0,0,28.68,18,3,3,0,0,0,31.86,15Z"/><path class="cls-1" d="M64.71,17.4v8.22H60.33v-4H41.46V6.6H46V17.4h3.9V6.6h4.5V17.4h3.9V6.6h4.5V17.4Z"/><path class="cls-1" d="M77,18a3.92,3.92,0,0,0,2.88-1.14l3.6,2.07A7.61,7.61,0,0,1,76.92,22c-5.13,0-8.31-3.45-8.31-7.92a7.69,7.69,0,0,1,8-7.92,7.57,7.57,0,0,1,7.62,7.92A8.71,8.71,0,0,1,84,15.9H73.38C73.95,17.46,75.33,18,77,18Zm2.76-5.46a3.38,3.38,0,0,0-6.45,0Z"/><path class="cls-1" d="M103.86,6.6v15h-4.5V16.2h-5.1v5.4h-4.5V6.6h4.5V12h5.1V6.6Z"/><path class="cls-1" d="M124.26,6.6v15h-4.38V14.1l-6.42,7.5h-3.3V6.6h4.38v7.5L121,6.6Z"/><path class="cls-1" d="M138.18,18a3.92,3.92,0,0,0,2.88-1.14l3.6,2.07A7.61,7.61,0,0,1,138.12,22c-5.13,0-8.31-3.45-8.31-7.92a7.69,7.69,0,0,1,8-7.92,7.57,7.57,0,0,1,7.62,7.92,8.71,8.71,0,0,1-.18,1.8H134.58C135.15,17.46,136.53,18,138.18,18Zm2.76-5.46a3.38,3.38,0,0,0-6.45,0Z"/></g></g></svg>