<svg xmlns="http://www.w3.org/2000/svg" viewBox="0 0 182.4 28.32"><defs><style>.cls-1{opacity:0.06;}</style></defs><title>english-yes</title><g id="Слой_2" data-name="Слой 2"><g id="Слой_1-2" data-name="Слой 1"><path class="cls-1" d="M8.37,18.3a3.92,3.92,0,0,0,2.88-1.14l3.6,2.07a7.61,7.61,0,0,1-6.54,3.09C3.18,22.32,0,18.87,0,14.4A7.69,7.69,0,0,1,8,6.48,7.57,7.57,0,0,1,15.6,14.4a8.71,8.71,0,0,1-.18,1.8H4.77C5.34,17.76,6.72,18.3,8.37,18.3Zm2.76-5.46a3.09,3.09,0,0,0-3.18-2.37,3.1,3.1,0,0,0-3.27,2.37Z"/><path class="cls-1" d="M35.55,12.69V21.9H31V13.35a2.47,2.47,0,0,0-2.61-2.73c-1.65,0-2.79,1-2.79,3.09V21.9h-4.5V6.9h4.5V8.31a5.13,5.13,0,0,1,4.29-1.83C33,6.48,35.55,8.64,35.55,12.69Z"/><path class="cls-1" d="M57,6.9V21.15c0,5-3.93,7.17-7.92,7.17-3.12,0-5.73-1.17-7.11-3.63l3.84-2.22a3.43,3.43,0,0,0,3.42,1.89c2.1,0,3.39-1.08,3.39-3.21V19.77a5.33,5.33,0,0,1-4.38,1.95,7.43,7.43,0,0,1-7.38-7.62,7.43,7.43,0,0,1,7.38-7.62,5.33,5.33,0,0,1,4.38,2V6.9Zm-4.38,7.2a3.63,3.63,0,0,0-7.26,0,3.63,3.63,0,0,0,7.26,0Z"/><path class="cls-1" d="M63.33,0h4.5V21.9h-4.5Z"/><path class="cls-1" d="M73.68,2.88a2.7,2.7,0,1,1,5.4,0,2.7,2.7,0,1,1-5.4,0Zm.45,4h4.5v15h-4.5Z"/><path class="cls-1" d="M96.42,17.4c0,3.45-3,4.92-6.24,4.92-3,0-5.28-1.14-6.45-3.57l3.9-2.22a2.46,2.46,0,0,0,2.55,1.77c1.08,0,1.62-.33,1.62-.93,0-1.65-7.38-.78-7.38-6,0-3.27,2.76-4.92,5.88-4.92a6.56,6.56,0,0,1,5.85,3.21l-3.84,2.07a2.18,2.18,0,0,0-2-1.32c-.78,0-1.26.3-1.26.84C89,13,96.42,11.85,96.42,17.4Z"/><path class="cls-1" d="M116.07,12.69V21.9h-4.5V13.35A2.47,2.47,0,0,0,109,10.62c-1.65,0-2.79,1-2.79,3.09V21.9h-4.5V.9h4.5V8.31a5.13,5.13,0,0,1,4.29-1.83C113.49,6.48,116.07,8.64,116.07,12.69Z"/><path class="cls-1" d="M146.91,6.9l-5.13,14.55c-1.68,4.77-4.35,6.66-8.55,6.45V23.7c2.1,0,3.09-.66,3.75-2.49L131,6.9h5l3.33,9.18,2.82-9.18Z"/><path class="cls-1" d="M158.58,18.3a3.92,3.92,0,0,0,2.88-1.14l3.6,2.07a7.61,7.61,0,0,1-6.54,3.09c-5.13,0-8.31-3.45-8.31-7.92a7.69,7.69,0,0,1,8-7.92,7.57,7.57,0,0,1,7.62,7.92,8.71,8.71,0,0,1-.18,1.8H155C155.55,17.76,156.93,18.3,158.58,18.3Zm2.76-5.46a3.38,3.38,0,0,0-6.45,0Z"/><path class="cls-1" d="M182.4,17.4c0,3.45-3,4.92-6.24,4.92-3,0-5.28-1.14-6.45-3.57l3.9-2.22a2.46,2.46,0,0,0,2.55,1.77c1.08,0,1.62-.33,1.62-.93,0-1.65-7.38-.78-7.38-6,0-3.27,2.76-4.92,5.88-4.92a6.56,6.56,0,0,1,5.85,3.21l-3.84,2.07a2.18,2.18,0,0,0-2-1.32c-.78,0-1.26.3-1.26.84C175,13,182.4,11.85,182.4,17.4Z"/></g></g></svg>