<svg xmlns="http://www.w3.org/2000/svg" viewBox="0 0 420.87 145.6"><defs><style>.cls-1{fill:#e4002b;}</style></defs><title>Logo-YES</title><g id="Слой_2" data-name="Слой 2"><g id="Слой_1-2" data-name="Слой 1"><path class="cls-1" d="M114.87,89v53.8h-32V89l-47-86.2h36.4l26.6,54,26.6-54h36.4Z"/><path class="cls-1" d="M281.87,112v30.8h-88V2.8h87V33.6h-55V56.8h50V87.2h-50V112Z"/><path class="cls-1" d="M312.87,111l27.6-16c5,11.6,13.6,19.4,29.4,19.4,15.2,0,19-6,19-11.4,0-8.6-8-12-29-17.8-20.8-5.8-41.2-15.8-41.2-42.6,0-27,22.8-42.6,47-42.6,23,0,41,11,51.2,31.6l-27,15.8c-4.8-10-11.4-16.2-24.2-16.2-10,0-15,5-15,10.6,0,6.4,3.4,10.8,25.2,17.4,21.2,6.4,45,13.8,45,43.4,0,27-21.6,43-52,43C339.47,145.6,320.67,131.6,312.87,111Z"/><rect y="106.84" width="36.99" height="36.99"/></g></g></svg>