<svg xmlns="http://www.w3.org/2000/svg" viewBox="0 0 153.87 21.42"><defs><style>.cls-1{fill:#efefef;}</style></defs><title>praсtice</title><g id="Слой_2" data-name="Слой 2"><g id="Слой_1-2" data-name="Слой 1"><path class="cls-1" d="M14.1,15.42H9.6V4.62H4.5v10.8H0V.42H14.1Z"/><path class="cls-1" d="M36.54,7.92c0,4.47-3.24,7.92-7.17,7.92A5.63,5.63,0,0,1,24.9,14v7.41H20.4V.42h4.5V1.83A5.63,5.63,0,0,1,29.37,0C33.3,0,36.54,3.45,36.54,7.92Zm-4.5,0a3.43,3.43,0,0,0-3.57-3.66A3.43,3.43,0,0,0,24.9,7.92a3.43,3.43,0,0,0,3.57,3.66A3.43,3.43,0,0,0,32,7.92Z"/><path class="cls-1" d="M57.48.42v15H53V14a5.63,5.63,0,0,1-4.47,1.83c-3.93,0-7.17-3.45-7.17-7.92S44.58,0,48.51,0A5.63,5.63,0,0,1,53,1.83V.42ZM53,7.92a3.57,3.57,0,1,0-7.14,0,3.57,3.57,0,1,0,7.14,0Z"/><path class="cls-1" d="M73.08,15.42l-4.8-6.63v6.63h-4.5V.42h4.5V7L72.78.42H78l-5.46,7.5,5.61,7.5Z"/><path class="cls-1" d="M95,4.74H90.51V15.42H86V4.74H81.48V.42H95Z"/><path class="cls-1" d="M114,.42v15h-4.38V7.92l-6.42,7.5h-3.3V.42h4.38v7.5l6.42-7.5Z"/><path class="cls-1" d="M129.63,15.42l-4.8-6.63v6.63h-4.5V.42h4.5V7l4.5-6.57h5.25l-5.46,7.5,5.61,7.5Z"/><path class="cls-1" d="M153.87.42v15h-4.5V14a5.63,5.63,0,0,1-4.47,1.83c-3.93,0-7.17-3.45-7.17-7.92S141,0,144.9,0a5.63,5.63,0,0,1,4.47,1.83V.42Zm-4.5,7.5a3.57,3.57,0,1,0-7.14,0,3.57,3.57,0,1,0,7.14,0Z"/></g></g></svg>