<svg xmlns="http://www.w3.org/2000/svg" viewBox="0 0 112.59 21.42"><defs><style>.cls-1{fill:#efefef;}</style></defs><title>repeat</title><g id="Слой_2" data-name="Слой 2"><g id="Слой_1-2" data-name="Слой 1"><path class="cls-1" d="M14.1,15.42H9.6V4.62H4.5v10.8H0V.42H14.1Z"/><path class="cls-1" d="M19.65,7.92a7.95,7.95,0,0,1,15.9,0,7.95,7.95,0,0,1-15.9,0Zm11.4,0a3.45,3.45,0,1,0-6.9,0,3.45,3.45,0,1,0,6.9,0Z"/><path class="cls-1" d="M54.3,11.13c0,2.49-1.77,4.29-5.1,4.29H41.1V.42h7.5c3.33,0,5.1,1.8,5.1,4.29a3.6,3.6,0,0,1-1.41,3A3.66,3.66,0,0,1,54.3,11.13ZM45.3,4v2.1h2.82c.81,0,1.32-.3,1.32-1S48.93,4,48.12,4Zm4.62,6.57c0-.72-.54-1.05-1.32-1.05H45.3V11.7h3.3C49.38,11.7,49.92,11.34,49.92,10.59Z"/><path class="cls-1" d="M71.4,4.74H66.93V15.42h-4.5V4.74H57.9V.42H71.4Z"/><path class="cls-1" d="M75,7.92a7.95,7.95,0,0,1,15.9,0,7.95,7.95,0,0,1-15.9,0Zm11.4,0a3.45,3.45,0,1,0-6.9,0,3.45,3.45,0,1,0,6.9,0Z"/><path class="cls-1" d="M112.59,7.92c0,4.47-3.24,7.92-7.17,7.92A5.63,5.63,0,0,1,100.95,14v7.41h-4.5V.42h4.5V1.83A5.63,5.63,0,0,1,105.42,0C109.35,0,112.59,3.45,112.59,7.92Zm-4.5,0a3.57,3.57,0,1,0-7.14,0,3.57,3.57,0,1,0,7.14,0Z"/></g></g></svg>