<svg xmlns="http://www.w3.org/2000/svg" viewBox="0 0 113.22 21.42"><defs><style>.cls-1{fill:#efefef;}</style></defs><title>simple</title><g id="Слой_2" data-name="Слой 2"><g id="Слой_1-2" data-name="Слой 1"><path class="cls-1" d="M14.1,15.42H9.6V4.62H4.5v10.8H0V.42H14.1Z"/><path class="cls-1" d="M36.54,7.92c0,4.47-3.24,7.92-7.17,7.92A5.63,5.63,0,0,1,24.9,14v7.41H20.4V.42h4.5V1.83A5.63,5.63,0,0,1,29.37,0C33.3,0,36.54,3.45,36.54,7.92Zm-4.5,0a3.43,3.43,0,0,0-3.57-3.66A3.43,3.43,0,0,0,24.9,7.92a3.43,3.43,0,0,0,3.57,3.66A3.43,3.43,0,0,0,32,7.92Z"/><path class="cls-1" d="M41.34,7.92a7.95,7.95,0,0,1,15.9,0,7.95,7.95,0,0,1-15.9,0Zm11.4,0a3.45,3.45,0,1,0-6.9,0,3.45,3.45,0,1,0,6.9,0Z"/><path class="cls-1" d="M62,7.92A7.93,7.93,0,0,1,76.77,3.84L72.84,6.12a3.11,3.11,0,0,0-2.91-1.68,3.3,3.3,0,0,0-3.39,3.48,3.3,3.3,0,0,0,3.39,3.48,3.07,3.07,0,0,0,2.91-1.68L76.77,12A7.66,7.66,0,0,1,70,15.84,7.77,7.77,0,0,1,62,7.92Z"/><path class="cls-1" d="M93.72,4.74H89.25V15.42h-4.5V4.74H80.22V.42h13.5Z"/><path class="cls-1" d="M97.32,7.92a7.95,7.95,0,0,1,15.9,0,7.95,7.95,0,0,1-15.9,0Zm11.4,0a3.45,3.45,0,1,0-6.9,0,3.45,3.45,0,1,0,6.9,0Z"/></g></g></svg>