<svg xmlns="http://www.w3.org/2000/svg" viewBox="0 0 45.72 45.72"><defs><style>.cls-1{fill:#e4002b;stroke:#e4002b;stroke-miterlimit:10;}</style></defs><title>torus</title><g id="Слой_2" data-name="Слой 2"><g id="Слой_1-2" data-name="Слой 1"><path class="cls-1" d="M22.86,45.22h0A22.36,22.36,0,0,1,.5,22.86h0A22.36,22.36,0,0,1,22.86.5h0A22.36,22.36,0,0,1,45.22,22.86h0A22.36,22.36,0,0,1,22.86,45.22ZM39.8,22.86h0A16.69,16.69,0,0,0,23.11,6.17h0A16.69,16.69,0,0,0,6.42,22.86h0A16.69,16.69,0,0,0,23.11,39.55h0A16.69,16.69,0,0,0,39.8,22.86Z"/></g></g></svg>